<?xml version="1.0" encoding="UTF-8"?>
<svg xmlns="http://www.w3.org/2000/svg" version="1.1" viewBox="0 0 144 147">
  <defs>
    <style>
      .cls-1 {
        fill: #121e13;
        opacity: .3;
        stroke: #121e13;
        stroke-miterlimit: 10;
        stroke-width: 1.2px;
      }
    </style>
  </defs>
  <!-- Generator: Adobe Illustrator 28.6.0, SVG Export Plug-In . SVG Version: 1.2.0 Build 709)  -->
  <g>
    <g id="Calque_2">
      <path class="cls-1" d="M61.03,25.39c4.8-.12,15.52-.03,19.79-.05,1.14,0,1.8-.01,2.07.04.17.04.22.1.25.23.23,3.43-.38,58.51.23,62.41,4.19.18,13,0,16.91.07,2.1,0,1.72,0,.85,1.02-5.15,5.73-12.86,14.39-18.53,20.71-3.32,3.72-6.47,7.23-9.69,10.83-1.08,1.17-.74,1.17-1.82,0-7.21-8.05-15.18-16.97-22.34-24.97-2.93-3.28-5.24-5.86-6.19-6.92-.62-.69-.66-.66,1.16-.67,3.88,0,11.41,0,15.03,0,1.13,0,1.71.01,1.92-.08.12-.05.15-.13.17-.27.16-4.07-.27-58.75.16-62.34h.03Z"/>
    </g>
  </g>
</svg>