<?xml version="1.0" encoding="UTF-8"?>
<svg xmlns="http://www.w3.org/2000/svg" version="1.1" viewBox="0 0 2999.57 2795.19">
  <defs>
    <style>
      .cls-1 {
        fill: #eaf9ec;
      }

      .cls-2 {
        stroke-width: .4px;
      }

      .cls-2, .cls-3 {
        fill: none;
        stroke: #000;
        stroke-miterlimit: 10;
      }

      .cls-3 {
        stroke-width: .31px;
      }
    </style>
  </defs>
  <!-- Generator: Adobe Illustrator 28.6.0, SVG Export Plug-In . SVG Version: 1.2.0 Build 709)  -->
  <g>
    <g id="Calque_1">
      <rect class="cls-1" width="2999.57" height="2795.19"/>
      <g>
        <g>
          <line class="cls-2" x1="574.21" y1="0" x2="574.21" y2="2795.19"/>
          <line class="cls-2" x1="641.55" y1="0" x2="641.55" y2="2795.19"/>
          <line class="cls-2" x1="708.88" y1="0" x2="708.88" y2="2795.19"/>
          <line class="cls-2" x1="776.22" y1="0" x2="776.22" y2="2795.19"/>
          <line class="cls-2" x1="843.55" y1="0" x2="843.55" y2="2795.19"/>
          <line class="cls-2" x1="910.89" y1="0" x2="910.89" y2="2795.19"/>
          <line class="cls-2" x1="978.22" y1="0" x2="978.22" y2="2795.19"/>
          <line class="cls-2" x1="1045.56" y1="0" x2="1045.56" y2="2795.19"/>
          <line class="cls-2" x1="1112.89" y1="0" x2="1112.89" y2="2795.19"/>
          <line class="cls-2" x1="1180.23" y1="0" x2="1180.23" y2="2795.19"/>
          <line class="cls-2" x1="1247.56" y1="0" x2="1247.56" y2="2795.19"/>
          <line class="cls-2" x1="1314.9" y1="0" x2="1314.9" y2="2795.19"/>
          <line class="cls-2" x1="1382.23" y1="0" x2="1382.23" y2="2795.19"/>
          <line class="cls-2" x1="1449.57" y1="0" x2="1449.57" y2="2795.19"/>
          <line class="cls-2" x1="1516.9" y1="0" x2="1516.9" y2="2795.19"/>
          <line class="cls-2" x1="1584.24" y1="0" x2="1584.24" y2="2795.19"/>
          <line class="cls-2" x1="1651.57" y1="0" x2="1651.57" y2="2795.19"/>
          <line class="cls-2" x1="1718.91" y1="0" x2="1718.91" y2="2795.19"/>
          <line class="cls-2" x1="1786.24" y1="0" x2="1786.24" y2="2795.19"/>
          <line class="cls-2" x1="1853.58" y1="0" x2="1853.58" y2="2795.19"/>
          <line class="cls-2" x1="1920.91" y1="0" x2="1920.91" y2="2795.19"/>
          <line class="cls-2" x1="1988.25" y1="0" x2="1988.25" y2="2795.19"/>
          <line class="cls-2" x1="2055.58" y1="0" x2="2055.58" y2="2795.19"/>
          <line class="cls-2" x1="2122.91" y1="0" x2="2122.91" y2="2795.19"/>
          <line class="cls-2" x1="2190.25" y1="0" x2="2190.25" y2="2795.19"/>
          <line class="cls-2" x1="2257.58" y1="0" x2="2257.58" y2="2795.19"/>
          <line class="cls-2" x1="2324.92" y1="0" x2="2324.92" y2="2795.19"/>
          <line class="cls-2" x1="2392.25" y1="0" x2="2392.25" y2="2795.19"/>
          <line class="cls-2" x1="2462.11" y1="0" x2="2462.11" y2="2795.19"/>
          <line class="cls-2" x1="2529.44" y1="0" x2="2529.44" y2="2795.19"/>
          <line class="cls-2" x1="2596.78" y1="0" x2="2596.78" y2="2795.19"/>
          <line class="cls-2" x1="2664.11" y1="0" x2="2664.11" y2="2795.19"/>
          <line class="cls-2" x1="2731.45" y1="0" x2="2731.45" y2="2795.19"/>
          <line class="cls-2" x1="2798.78" y1="0" x2="2798.78" y2="2795.19"/>
          <line class="cls-2" x1="2866.12" y1="0" x2="2866.12" y2="2795.19"/>
          <line class="cls-2" x1="2932.23" y1="0" x2="2932.23" y2="2795.19"/>
          <line class="cls-2" x1="2999.57" y1="0" x2="2999.57" y2="2795.19"/>
          <line class="cls-2" x1="35.71" y1="0" x2="35.71" y2="2795.19"/>
          <line class="cls-2" x1="103.05" y1="0" x2="103.05" y2="2795.19"/>
          <line class="cls-2" x1="170.38" y1="0" x2="170.38" y2="2795.19"/>
          <line class="cls-2" x1="237.72" y1="0" x2="237.72" y2="2795.19"/>
          <line class="cls-2" x1="305.05" y1="0" x2="305.05" y2="2795.19"/>
          <line class="cls-2" x1="372.39" y1="0" x2="372.39" y2="2795.19"/>
          <line class="cls-2" x1="439.72" y1="0" x2="439.72" y2="2795.19"/>
          <line class="cls-2" x1="507.06" y1="0" x2="507.06" y2="2795.19"/>
        </g>
        <g>
          <line class="cls-3" x1="2999.57" y1="387.23" x2="0" y2="387.23"/>
          <line class="cls-3" x1="2999.57" y1="454.57" x2="0" y2="454.57"/>
          <line class="cls-3" x1="2999.57" y1="521.9" x2="0" y2="521.9"/>
          <line class="cls-3" x1="2999.57" y1="589.24" x2="0" y2="589.24"/>
          <line class="cls-3" x1="2999.57" y1="656.57" x2="0" y2="656.57"/>
          <line class="cls-3" x1="2999.57" y1="723.91" x2="0" y2="723.91"/>
          <line class="cls-3" x1="2999.57" y1="791.24" x2="0" y2="791.24"/>
          <line class="cls-3" x1="2999.57" y1="858.58" x2="0" y2="858.58"/>
          <line class="cls-3" x1="2999.57" y1="925.91" x2="0" y2="925.91"/>
          <line class="cls-3" x1="2999.57" y1="993.25" x2="0" y2="993.25"/>
          <line class="cls-3" x1="2999.57" y1="1060.58" x2="0" y2="1060.58"/>
          <line class="cls-3" x1="2999.57" y1="1127.92" x2="0" y2="1127.92"/>
          <line class="cls-3" x1="2999.57" y1="1195.25" x2="0" y2="1195.25"/>
          <line class="cls-3" x1="2999.57" y1="1262.59" x2="0" y2="1262.59"/>
          <line class="cls-3" x1="2999.57" y1="1329.92" x2="0" y2="1329.92"/>
          <line class="cls-3" x1="2999.57" y1="52.81" x2="0" y2="52.81"/>
          <line class="cls-3" x1="2999.57" y1="120.14" x2="0" y2="120.14"/>
          <line class="cls-3" x1="2999.57" y1="187.48" x2="0" y2="187.48"/>
          <line class="cls-3" x1="2999.57" y1="254.81" x2="0" y2="254.81"/>
          <line class="cls-3" x1="2999.57" y1="322.15" x2="0" y2="322.15"/>
        </g>
        <g>
          <line class="cls-3" x1="2999.57" y1="1397.59" x2="0" y2="1397.59"/>
          <line class="cls-3" x1="2999.57" y1="1464.93" x2="0" y2="1464.93"/>
          <line class="cls-3" x1="2999.57" y1="1532.26" x2="0" y2="1532.26"/>
          <line class="cls-3" x1="2999.57" y1="1599.6" x2="0" y2="1599.6"/>
          <line class="cls-3" x1="2999.57" y1="1666.93" x2="0" y2="1666.93"/>
          <line class="cls-3" x1="2999.57" y1="1734.27" x2="0" y2="1734.27"/>
          <line class="cls-3" x1="2999.57" y1="1801.6" x2="0" y2="1801.6"/>
          <line class="cls-3" x1="2999.57" y1="1868.94" x2="0" y2="1868.94"/>
          <line class="cls-3" x1="2999.57" y1="1936.27" x2="0" y2="1936.27"/>
          <line class="cls-3" x1="2999.57" y1="2003.61" x2="0" y2="2003.61"/>
          <line class="cls-3" x1="2999.57" y1="2070.94" x2="0" y2="2070.94"/>
          <line class="cls-3" x1="2999.57" y1="2138.28" x2="0" y2="2138.28"/>
          <line class="cls-3" x1="2999.57" y1="2205.61" x2="0" y2="2205.61"/>
          <line class="cls-3" x1="2999.57" y1="2272.95" x2="0" y2="2272.95"/>
          <line class="cls-3" x1="2999.57" y1="2340.28" x2="0" y2="2340.28"/>
          <line class="cls-3" x1="2999.57" y1="2407.86" x2="0" y2="2407.86"/>
          <line class="cls-3" x1="2999.57" y1="2475.19" x2="0" y2="2475.19"/>
          <line class="cls-3" x1="2999.57" y1="2542.53" x2="0" y2="2542.53"/>
          <line class="cls-3" x1="2999.57" y1="2609.86" x2="0" y2="2609.86"/>
          <line class="cls-3" x1="2999.57" y1="2677.2" x2="0" y2="2677.2"/>
          <line class="cls-3" x1="2999.57" y1="2744.53" x2="0" y2="2744.53"/>
        </g>
      </g>
    </g>
  </g>
</svg>